<svg width="683" height="683" viewBox="0 0 683 683" fill="none" xmlns="http://www.w3.org/2000/svg">
<g clip-path="url(#clip0_40_3)">
<path d="M36.1333 1.46655C22.2667 4.13322 10.2667 13.5999 4.26666 26.3999C1.33333 32.6666 0.666663 35.8666 0.666663 44.6666C0.666663 65.3332 -8.40001 55.0666 144 207.333L278.667 342L142.8 478C32.5333 588.533 6.53333 615.2 4 620.667C-0.533337 630.133 -0.66667 647.2 3.73333 656.667C7.6 665.067 16.1333 673.867 24.6667 678.4C34.2667 683.333 49.6 684 60.6667 680C68.4 677.067 73.2 672.533 205.067 540.8L341.333 404.667L477.067 540.133C586 648.933 614 676.267 619.333 678.8C624.933 681.467 628 682 638.667 682C649.733 682 652.133 681.467 658 678.4C666.267 674.133 675.2 664.667 679.067 656.267C683.333 647.2 683.067 630 678.667 620.667C676.133 615.2 650.133 588.533 539.867 478L404 342L538.667 207.333C691.067 55.0666 682 65.3332 682 44.6666C682 35.9999 681.333 32.6666 678.533 26.6666C667.733 3.73322 640.667 -5.60012 618 5.59988C614.533 7.33322 565.867 54.9333 477.067 143.733L341.333 279.333L205.733 143.733C116.8 54.9333 68.1333 7.33322 64.6667 5.59988C60.1333 3.33322 45.3333 -0.400117 42.8 0.133216C42.4 0.26655 39.3333 0.799883 36.1333 1.46655Z" fill="#75818C"/>
</g>
<defs>
<clipPath id="clip0_40_3">
<rect width="682.667" height="682.667" fill="white"/>
</clipPath>
</defs>
</svg>
