<svg width="512" height="512" viewBox="0 0 512 512" fill="none" xmlns="http://www.w3.org/2000/svg">
<g clip-path="url(#clip0_23_190)">
<path opacity="0.982" fill-rule="evenodd" clip-rule="evenodd" d="M254.5 -0.5C262.167 -0.5 269.833 -0.5 277.5 -0.5C312.897 9.76532 329.397 33.432 327 70.5C319.765 103.571 299.265 120.905 265.5 122.5C238.483 121.641 219.317 108.974 208 84.5C197.735 51.9596 206.568 26.1262 234.5 7C240.96 3.58835 247.627 1.08835 254.5 -0.5Z" fill="#36C5D3"/>
<path opacity="0.979" fill-rule="evenodd" clip-rule="evenodd" d="M115.5 65.5001C145.684 64.1633 166.184 77.4967 177 105.5C183.792 137.075 172.959 160.242 144.5 175C111.59 185.287 86.7563 175.454 70 145.5C59.8276 115.353 67.661 91.1864 93.5 73.0001C100.578 69.3638 107.911 66.8638 115.5 65.5001Z" fill="#36C5D3"/>
<path opacity="0.955" fill-rule="evenodd" clip-rule="evenodd" d="M402.5 96.5C421.775 94.7831 432.775 103.45 435.5 122.5C432.97 141.196 422.303 149.696 403.5 148C386.118 141.739 379.952 129.573 385 111.5C388.889 104.103 394.722 99.103 402.5 96.5Z" fill="#36C5D3"/>
<path opacity="0.977" fill-rule="evenodd" clip-rule="evenodd" d="M50.5 214.5C80.6929 211.573 100.86 224.24 111 252.5C116.34 284.334 103.84 305.5 73.5 316C42.5831 320.962 21.7498 308.795 11 279.5C5.82831 246.486 18.995 224.82 50.5 214.5Z" fill="#36C5D3"/>
<path opacity="0.963" fill-rule="evenodd" clip-rule="evenodd" d="M464.5 234.5C490.417 234.02 502.584 246.687 501 272.5C493.382 294.168 478.548 301.335 456.5 294C439.877 283.358 435.377 268.858 443 250.5C448.071 242.251 455.238 236.917 464.5 234.5Z" fill="#36C5D3"/>
<path opacity="0.975" fill-rule="evenodd" clip-rule="evenodd" d="M116.5 362.5C143.377 361.569 160.544 373.902 168 399.5C171.295 428.758 158.795 447.258 130.5 455C103.056 457.535 85.2226 445.701 77 419.5C73.535 388.821 86.7017 369.821 116.5 362.5Z" fill="#36C5D3"/>
<path opacity="0.967" fill-rule="evenodd" clip-rule="evenodd" d="M406.5 372.5C430.227 373.561 443.227 385.895 445.5 409.5C443.167 431.167 431.167 443.167 409.5 445.5C387.313 443.647 374.98 431.647 372.5 409.5C374.221 388.12 385.554 375.786 406.5 372.5Z" fill="#36C5D3"/>
<path opacity="0.973" fill-rule="evenodd" clip-rule="evenodd" d="M275.5 511.5C269.167 511.5 262.833 511.5 256.5 511.5C232.984 503.772 222.484 487.439 225 462.5C230.553 441.652 244.053 430.652 265.5 429.5C286.334 430.159 299.834 440.492 306 460.5C309.638 485.907 299.472 502.907 275.5 511.5Z" fill="#36C5D3"/>
</g>
<defs>
<clipPath id="clip0_23_190">
<rect width="512" height="512" fill="white"/>
</clipPath>
</defs>
</svg>
