<svg width="513" height="597" viewBox="0 0 513 597" fill="none" xmlns="http://www.w3.org/2000/svg">
<path d="M53.9333 2.33331C41.2667 5.66669 31 11.6667 21.6667 21C12.0667 30.6 6.33333 40.6 3 53.8C0.33333 63.9333 0.33333 69 0.33333 298.867C0.33333 556.867 -0.0666702 541.667 8.46666 558.6C13.9333 569.533 27.8 583.4 38.7333 588.867C56.4667 597.8 77.1333 599.267 95.1333 592.6C101.267 590.467 161.8 552.867 291.8 470.867C501.933 338.333 493.8 343.933 504.2 322.467C515.8 298.467 514.6 271.533 501 248.2C496.333 240.2 486.867 229.933 479.667 225C476.733 223 414.333 186.733 341 144.333C267.667 102.067 184.333 53.8 155.667 37.2667C127.133 20.7333 99.8 5.66669 95 3.93335C82.8667 -0.599976 66.8667 -1.26666 53.9333 2.33331Z" fill="#75818C"/>
</svg>
