<svg width="683" height="683" viewBox="0 0 683 683" fill="none" xmlns="http://www.w3.org/2000/svg">
<path d="M138.933 45.3333C126.267 48.6667 116 54.6667 106.667 64C97.0667 73.6 91.3333 83.6 88 96.8C85.3333 106.933 85.3333 112 85.3333 341.867C85.3333 599.867 84.9333 584.667 93.4667 601.6C98.9333 612.533 112.8 626.4 123.733 631.867C141.467 640.8 162.133 642.267 180.133 635.6C186.267 633.467 246.8 595.867 376.8 513.867C586.933 381.333 578.8 386.933 589.2 365.467C600.8 341.467 599.6 314.533 586 291.2C581.333 283.2 571.867 272.933 564.667 268C561.733 266 499.333 229.733 426 187.333C352.667 145.067 269.333 96.8 240.667 80.2667C212.133 63.7333 184.8 48.6667 180 46.9333C167.867 42.4 151.867 41.7333 138.933 45.3333Z" fill="#36C5D3"/>
</svg>
