<svg width="1055" height="418" viewBox="0 0 1055 418" fill="none" xmlns="http://www.w3.org/2000/svg">
<g clip-path="url(#clip0_18_179)">
<g clip-path="url(#clip1_18_179)">
<path d="M472.57 86.045C471.972 86.8051 471.321 88.7055 471.104 90.4973C470.452 96.3071 471.158 95.8184 463.339 95.927C455.738 96.0356 449.276 96.7415 441.675 98.3161L436.679 99.2934L420.879 96.0899C412.191 94.2981 404.536 92.8321 403.83 92.8321C402.038 92.8321 400.246 94.7325 400.246 96.6872C400.246 97.7188 401.549 100.488 403.775 104.289C405.73 107.601 407.305 110.479 407.305 110.641C407.305 110.859 405.404 112.162 403.124 113.573C400.789 114.931 397.205 117.32 395.142 118.895C393.079 120.415 391.233 121.501 390.961 121.229C390.744 121.012 389.495 118.84 388.246 116.451C384.229 108.904 382.763 107.492 379.939 108.524C379.179 108.85 372.935 116.886 363.487 129.863C355.125 141.319 348.013 151.256 347.632 151.907C346.601 153.807 347.144 154.948 351.65 161.246C353.931 164.395 355.668 167.327 355.505 167.762C355.397 168.196 354.311 171.128 353.116 174.277C351.868 177.427 350.184 182.911 349.261 186.44C348.393 189.969 347.578 192.956 347.47 193.01C347.361 193.118 344.483 191.164 341.063 188.612C336.936 185.571 334.33 184.051 333.407 184.051C331.615 184.051 329.823 185.517 329.389 187.363C328.9 189.372 330.529 191.055 338.728 197.028L345.732 202.186V214.946C345.678 230.257 346.329 235.85 348.447 237.696C350.619 239.597 353.062 239.216 354.365 236.719C354.963 235.579 355.017 234.493 354.582 231.778C353.822 226.728 353.279 210.439 353.877 209.462C354.257 208.81 355.777 209.679 362.238 214.511C370.98 221.081 372.609 221.624 374.672 219.018C375.813 217.552 376.084 216.303 375.487 214.783C375.324 214.294 370.654 210.602 365.17 206.53C357.569 200.883 355.18 198.874 355.18 197.951C355.234 194.204 360.772 175.092 361.695 175.635C361.967 175.798 368.537 184.92 376.355 195.888C384.174 206.856 391.287 216.466 392.156 217.281C393.025 218.149 394.382 218.801 395.142 218.801C396.825 218.801 399.16 216.52 399.16 214.837C399.16 214.023 393.025 205.009 382.274 190.023L365.388 166.459L366.311 164.558C367.722 161.518 372.229 154.296 375.215 150.17C378.745 145.283 387.758 135.184 388.572 135.184C388.952 135.184 389.658 136.161 390.201 137.41C392.102 141.591 395.359 142.839 397.803 140.342C399.595 138.604 399.54 137.627 397.26 133.392C396.228 131.437 395.359 129.591 395.359 129.32C395.359 128.234 410.291 118.189 411.486 118.46C412.029 118.569 434.779 156.739 437.982 162.929L438.743 164.395L424.788 174.114C417.132 179.49 410.563 183.997 410.237 184.214C409.911 184.377 408.173 182.693 406.327 180.522L402.907 176.449L409.205 167.436C412.952 161.952 415.449 157.88 415.449 157.065C415.449 155.436 413.169 153.102 411.648 153.102C410.997 153.102 410.02 153.373 409.477 153.645C407.956 154.459 393.73 175.309 393.73 176.721C393.73 178.132 394.219 178.784 401.495 187.417C406.979 193.933 408.445 194.964 410.725 193.77C411.377 193.39 419.956 187.472 429.729 180.63C441.077 172.648 447.756 167.653 448.082 166.839C448.353 166.133 448.353 165.047 448.082 164.341C447.81 163.635 441.186 152.179 433.422 138.822C425.603 125.519 419.25 114.497 419.25 114.388C419.25 113.954 427.395 110.641 432.336 109.067L437.059 107.601L442.923 108.904C450.851 110.641 452.534 110.587 454 108.741C454.652 107.927 455.086 106.678 454.977 105.918L454.814 104.506L461.819 104.072C465.674 103.854 468.932 103.746 469.04 103.909C469.149 104.017 468.606 108.47 467.846 113.791C467.086 119.112 466.488 124.161 466.488 124.976C466.488 127.039 468.226 128.668 470.452 128.668C473.655 128.668 474.09 127.582 475.773 116.017C476.642 110.316 477.348 105.429 477.348 105.157C477.348 104.94 478.162 104.777 479.139 104.777C483.157 104.777 499.066 108.307 499.066 109.175C499.066 109.447 491.791 121.338 482.94 135.564C473.547 150.658 466.705 162.223 466.597 163.147C466.38 165.156 467.737 167.002 469.8 167.49C470.941 167.762 471.646 167.49 472.895 166.296C473.818 165.481 481.909 152.83 490.922 138.279C505.691 114.442 507.428 111.836 508.514 112.162C513.509 113.682 529.147 122.695 535.065 127.473C537.454 129.428 538.16 129.048 527.572 131.383C518.668 133.338 517.745 133.718 517.039 135.944C516.713 136.867 513.889 151.907 510.74 169.391C507.537 186.874 504.822 201.589 504.605 202.132C504.333 202.838 502.161 199.634 496.189 189.806C491.791 182.531 487.881 176.286 487.501 176.015C487.121 175.689 486.198 175.309 485.438 175.092C483.483 174.603 480.986 176.775 480.986 178.947C480.986 180.033 484.461 186.277 492.008 198.711C498.035 208.702 503.464 217.335 504.062 217.823C505.528 219.127 507.428 219.018 509.057 217.552C510.36 216.412 510.849 213.968 517.31 178.621C521.111 157.88 524.26 140.776 524.369 140.668C524.64 140.396 542.993 136.27 544.079 136.27C545.11 136.27 550.323 141.428 554.123 146.206C557.001 149.844 562.539 157.988 563.897 160.649L564.874 162.441L555.752 192.141C550.757 208.43 546.576 221.896 546.468 222.004C546.305 222.276 530.559 219.018 530.287 218.692C530.07 218.421 532.459 200.991 532.73 200.666C532.893 200.503 535.337 200.991 538.106 201.752C543.155 203.163 543.21 203.163 544.621 202.077C546.793 200.448 547.282 198.494 545.925 196.702C545.056 195.453 543.59 194.856 537.834 193.173C529.69 190.838 527.735 190.675 526.215 192.195C525.618 192.793 525.129 193.498 525.129 193.716C525.129 193.933 524.423 199.743 523.5 206.584C521.491 221.95 521.437 223.905 523.12 224.991C524.749 226.077 548.965 231.398 550.486 231.018C551.191 230.855 552.06 230.203 552.44 229.497C552.875 228.846 556.947 216.032 561.562 201.046C566.123 186.06 570.032 173.897 570.25 174.06C570.955 174.44 573.833 183.128 575.245 188.938C577.688 198.874 577.851 197.734 573.453 199.145C569.435 200.448 568.566 201.317 568.566 204.086C568.566 205.172 569.001 206.041 569.978 206.801C571.716 208.159 572.476 208.213 575.462 207.073C576.765 206.584 577.905 206.258 578.014 206.367C578.177 206.475 578.448 208.919 578.666 211.797C579.1 217.715 578.557 225.479 577.743 224.991C576.711 224.393 574.105 225.968 573.399 227.597C572.802 229.063 572.91 229.606 574.756 233.407L576.82 237.533L575.625 242.691C573.725 250.673 568.566 264.953 567.535 264.953C567.318 264.953 558.033 259.686 546.956 253.279C535.825 246.872 526.215 241.606 525.563 241.606C522.957 241.66 521.057 244.538 521.98 247.09C522.468 248.501 526.378 250.89 554.286 266.908C559.445 269.894 563.625 272.446 563.68 272.663C563.68 273.043 556.73 283.523 555.101 285.532L554.069 286.781L552.006 279.342C550.486 273.858 549.671 271.74 548.802 271.197C548.096 270.709 540.115 269.623 526.758 268.211C515.247 267.016 500.478 265.442 493.908 264.736C481.583 263.379 480.66 263.433 479.139 265.442C478.108 266.799 478.325 268.537 479.682 270.111C480.877 271.523 481.094 271.577 503.682 273.966C516.224 275.27 530.233 276.79 534.848 277.333L543.21 278.256L545.273 285.586C546.413 289.604 547.391 293.296 547.391 293.731C547.391 294.165 545.11 296.771 542.232 299.432C536.64 304.753 536.205 305.676 538.323 308.173C540.441 310.617 542.341 310.237 546.522 306.545L550.105 303.395L550.594 304.807C551.626 307.359 555.209 308.173 557.164 306.219C558.467 304.916 558.576 302.635 557.436 298.997L556.675 296.445L560.259 291.939C562.268 289.495 565.417 285.097 567.372 282.165C569.272 279.288 571.01 276.898 571.173 276.898C571.39 276.898 572.964 277.767 574.756 278.853C578.829 281.297 580.457 281.622 582.032 280.319C582.847 279.668 584.91 274.998 588.113 266.419C590.828 259.306 593 253.116 593 252.682C593 252.248 591.263 248.447 589.145 244.212L585.29 236.556L586.05 231.072C586.484 227.76 586.702 221.136 586.702 214.403L586.593 203.218L588.765 202.566C592.946 201.263 594.303 197.951 591.643 195.453C590.502 194.367 589.959 194.259 587.679 194.584L585.018 194.91L584.041 190.458C582.738 184.159 578.829 172.486 576.222 166.893C574.973 164.287 573.996 161.789 573.996 161.3C573.996 160.812 575.136 156.902 576.439 152.559C577.797 148.215 578.883 144.034 578.883 143.165C578.883 140.179 575.191 138.496 572.584 140.288C571.879 140.776 570.901 142.948 569.87 146.26C569.001 149.138 568.186 151.473 568.023 151.473C567.861 151.473 567.046 150.332 566.123 148.866C564.223 145.88 556.675 136.324 555.372 135.238C554.015 134.152 554.232 133.718 556.513 133.283C560.422 132.577 562.105 130.351 560.965 127.365C560.042 124.813 558.359 124.541 552.549 125.845L547.336 126.985L542.613 123.13C535.717 117.483 527.464 112.162 519.536 108.252C515.681 106.406 512.423 104.723 512.261 104.56C512.098 104.397 512.532 103.42 513.184 102.334C513.998 101.031 514.704 100.434 515.301 100.597C515.79 100.705 521.817 104.289 528.658 108.524C542.287 116.886 543.644 117.374 545.707 114.768C547.228 112.813 547.119 111.619 545.382 109.718C543.916 108.198 517.093 91.6375 514.487 90.6602C512.206 89.7372 510.795 90.8774 507.482 96.1985C505.745 98.9676 504.225 101.357 504.116 101.465C504.062 101.574 502.216 101.194 500.044 100.542C494.723 99.0762 488.696 97.7731 483.212 96.9586C479.248 96.4157 478.705 96.1985 478.814 95.2754C478.868 94.6782 479.085 92.7235 479.248 90.9317C479.574 88.1083 479.465 87.4567 478.434 86.1536C476.859 84.1989 474.09 84.0903 472.57 86.045ZM418.164 105.7C416.589 106.406 415.123 106.949 414.961 106.949C414.635 106.949 412.734 103.474 412.734 102.931C412.734 102.823 414.58 103.148 416.915 103.583L421.042 104.397L418.164 105.7ZM381.079 130.786C373.532 138.55 363.596 151.581 361.098 157.065C360.718 157.88 360.284 158.531 360.066 158.531C359.849 158.531 358.926 157.445 357.949 156.088L356.211 153.645L368.537 136.758L380.916 119.872L382.763 123.51L384.609 127.202L381.079 130.786ZM584.095 252.193C584.258 252.791 583.335 255.94 582.086 259.252C580.892 262.51 579.372 266.528 578.774 268.048C577.634 271.143 577.471 271.252 576.005 270.111C575.028 269.406 575.136 269.025 577.96 261.858C579.643 257.732 581.272 253.171 581.652 251.705C582.249 249.261 582.358 249.153 583.064 250.076C583.498 250.619 583.932 251.596 584.095 252.193Z" fill="#DEDEDE"/>
<path d="M346.003 106.841C344.375 108.144 344.32 110.967 345.895 112.542C346.927 113.628 347.632 113.736 352.682 113.736C359.198 113.736 360.609 113.03 360.609 109.827C360.609 106.569 359.252 105.863 352.791 105.863C348.23 105.863 346.927 106.026 346.003 106.841Z" fill="#DEDEDE"/>
<path d="M326.077 123.347C324.882 123.89 323.688 125.899 323.688 127.256C323.688 127.636 324.176 128.614 324.828 129.428L325.914 130.84H336.393C347.85 130.84 348.121 130.786 348.936 127.473C349.261 126.279 348.99 125.682 347.687 124.324L346.058 122.695L336.61 122.75C331.343 122.75 326.728 123.021 326.077 123.347Z" fill="#DEDEDE"/>
<path d="M543.644 154.568C542.287 155.708 538.594 167.219 538.812 169.608C539.137 172.811 543.101 174.114 545.436 171.834C546.359 170.857 550.105 159.291 550.105 157.337C550.105 155.653 547.988 153.645 546.196 153.645C545.436 153.645 544.296 154.079 543.644 154.568Z" fill="#DEDEDE"/>
<path d="M451.285 199.254C443.955 203.761 437.548 207.941 437.059 208.539C436.516 209.19 436.082 210.222 436.082 210.928C436.082 211.579 439.666 217.226 444.281 223.905C448.788 230.42 452.371 235.796 452.263 235.85C452.208 235.959 445.91 237.805 438.308 240.031C430.707 242.257 423.92 244.483 423.214 245.026C422.345 245.732 421.965 246.601 421.965 247.795C421.965 250.021 431.521 297.26 432.281 298.617C432.553 299.106 433.204 299.703 433.693 299.92C434.127 300.083 453.674 300.246 477.076 300.246C516.821 300.246 519.645 300.192 520.731 299.269C522.36 297.966 522.414 295.142 520.839 293.568L519.645 292.373L479.248 292.21C456.986 292.156 438.797 291.939 438.797 291.776C438.797 291.559 436.951 282.382 434.725 271.306C432.444 260.229 430.815 250.999 431.032 250.836C431.304 250.619 438.091 248.555 446.127 246.166C461.384 241.714 463.23 240.845 463.23 238.185C463.23 237.479 459.81 232.049 454.814 224.828C450.199 218.149 446.398 212.502 446.398 212.285C446.398 212.068 450.145 209.625 454.706 206.855C459.213 204.086 463.448 201.48 464.099 201.046C465.185 200.394 465.457 200.611 468.552 204.358L471.918 208.376L467.574 210.928C463.068 213.588 462.145 214.566 462.145 216.792C462.145 218.475 464.262 220.43 466.108 220.43C468.28 220.43 481.094 212.502 481.746 210.765C482.56 208.702 481.691 207.236 474.524 198.711C468.986 192.087 468.226 191.381 466.488 191.272C464.859 191.109 462.525 192.358 451.285 199.254Z" fill="#DEDEDE"/>
<path d="M424.68 218.095C423.051 218.692 410.019 228.086 409.205 229.28C408.119 230.855 408.173 231.941 409.531 233.678C411.54 236.23 413.386 235.687 420.933 230.42C429.241 224.611 429.729 224.176 429.729 222.059C429.729 219.507 426.906 217.28 424.68 218.095Z" fill="#DEDEDE"/>
<path d="M389.115 228.791C388.192 230.149 380.156 258.709 380.156 260.501C380.156 261.478 393.079 274.781 398.291 279.179L399.866 280.482L400.572 291.613C400.952 297.694 401.278 303.993 401.278 305.567L401.332 308.445L399.595 307.25C393.513 303.015 383.36 293.296 378.256 286.78L375.812 283.686L377.984 281.731C379.722 280.156 380.156 279.342 380.156 277.876C380.156 274.075 376.355 272.826 372.88 275.432L370.98 276.898L367.885 271.414C366.202 268.428 363.379 262.51 361.695 258.275C359.198 252.03 358.329 250.402 357.134 249.859C355.234 248.936 353.008 249.641 351.922 251.542C351.162 252.899 351.216 253.334 352.682 257.677C354.528 263.053 359.361 273.261 362.618 278.636L364.845 282.274L362.455 284.337C359.252 287.106 358.926 288.844 361.044 291.016C363.161 293.079 364.247 293.079 367.125 290.853L369.514 289.061L373.369 293.676C380.428 302.146 389.712 310.454 399.812 317.404L402.255 319.141L402.689 327.34C403.015 334.29 403.232 335.702 404.155 336.896C404.807 337.765 405.73 338.254 406.762 338.254C407.576 338.254 412.789 336.679 418.327 334.725L428.426 331.25L432.933 332.553C444.661 335.919 456.389 337.385 469.203 337.059L477.836 336.842L478.216 339.72C478.651 343.466 480.117 345.312 482.506 345.312C483.863 345.312 484.623 344.932 485.492 343.846C486.524 342.543 486.632 341.892 486.307 339.014L485.981 335.756L490.487 334.779C494.343 333.964 503.464 331.521 505.365 330.815C505.745 330.707 506.885 332.227 508.025 334.29C511.392 340.371 512.423 341.512 514.595 341.512C516.876 341.512 518.613 339.937 518.613 337.874C518.613 337.005 517.527 334.399 516.17 332.064C514.812 329.729 513.781 327.72 513.835 327.666C513.944 327.557 516.713 326.146 520.025 324.517C523.337 322.834 526.812 320.879 527.735 320.064C529.69 318.436 530.016 316.427 528.658 314.526C527.084 312.246 525.672 312.517 517.69 316.535C513.564 318.598 510.034 320.336 509.817 320.336C509.6 320.336 508.134 318.164 506.559 315.504C503.03 309.422 501.184 308.336 498.306 310.617C496.243 312.246 496.46 314.418 499.284 319.25C501.618 323.214 501.673 323.322 500.532 323.757C498.469 324.517 489.673 326.743 487.067 327.123L484.569 327.503L483.918 322.562C483.103 316.861 481.963 314.906 479.465 314.906C478.434 314.906 477.293 315.449 476.425 316.318C475.176 317.567 475.067 318.001 475.393 320.227C476.533 328.535 476.533 328.372 474.959 328.806C470.615 329.892 441.512 327.612 442.978 326.309C443.195 326.091 445.693 325.114 448.462 324.137C453.674 322.291 455.086 321.15 455.086 318.816C455.086 317.241 452.805 314.906 451.285 314.906C450.634 314.906 445.204 316.644 439.231 318.761L428.318 322.616L423.92 320.879C418.218 318.598 410.02 314.309 410.02 313.603C410.02 313.277 409.531 305.187 408.934 295.631C408.336 286.075 407.848 277.984 407.848 277.713C407.848 277.387 403.558 272.989 398.291 267.939L388.789 258.709L392.59 244.972C394.708 237.425 396.228 230.855 396.065 230.312C395.359 228.357 394.111 227.488 392.047 227.488C390.473 227.488 389.767 227.814 389.115 228.791ZM416.427 326.58C416.535 326.689 415.449 327.123 414.037 327.612C411.051 328.589 410.562 328.263 410.562 325.331V323.594L413.44 325.005C414.961 325.82 416.318 326.526 416.427 326.58Z" fill="#DEDEDE"/>
<path d="M481.909 233.57C480.388 234.275 479.411 236.447 479.845 238.076C480.008 238.782 482.017 241.008 484.298 243.071C491.791 249.804 493.094 250.347 495.537 247.85C497.818 245.623 497.383 243.995 493.528 240.357C488.533 235.687 484.949 232.918 483.972 232.972C483.429 232.972 482.506 233.244 481.909 233.57Z" fill="#DEDEDE"/>
<path d="M343.56 300.3C341.768 301.712 341.605 304.59 343.234 306.219C344.157 307.142 345.026 307.305 348.664 307.305C353.768 307.305 355.18 306.436 355.18 303.287C355.18 300.409 353.225 299.16 348.664 299.16C345.786 299.16 344.7 299.377 343.56 300.3Z" fill="#DEDEDE"/>
<path d="M322.547 318.055C312.014 323.539 312.774 338.254 323.85 342.869C325.099 343.358 327.543 343.684 330.42 343.684C334.71 343.684 335.09 343.575 336.121 342.272C337.533 340.48 337.587 338.743 336.23 337.114C335.307 335.973 334.601 335.811 330.8 335.648C327.162 335.485 326.239 335.213 325.099 334.182C322.547 331.847 322.602 328.372 325.099 326.037C326.511 324.734 326.62 324.734 341.171 324.571L355.831 324.408L356.863 323.105C358.22 321.476 358.166 319.739 356.754 317.947L355.668 316.535H340.52H325.425L322.547 318.055Z" fill="#DEDEDE"/>
</g>
<path d="M804.066 19.7014C788.169 24.9226 783.259 45.574 793.702 63.4199C794.871 65.3682 797.442 68.5633 799.469 70.5115L803.209 74.1742L799.78 80.8762C797.832 84.6168 796.273 88.2015 796.273 88.825C796.273 89.5264 796.04 89.916 795.728 89.7601C795.338 89.6043 793.78 88.825 792.143 87.9678C788.636 86.1754 785.597 86.9547 783.883 89.9939C782.09 93.1111 783.259 95.6828 788.013 99.0338L792.299 101.995L792.143 110.178C792.065 114.698 792.299 120.387 792.611 122.802C793.234 127.088 793.156 127.322 791.442 128.024C786.376 129.894 786.376 129.894 783.805 126.153C776.635 115.711 763.621 106.515 750.918 102.852L746.554 101.528L747.723 97.631C749.126 92.7215 748.191 89.7601 744.684 88.2795C740.865 86.7209 738.605 88.4353 736.579 94.5918L734.943 99.6572L728.007 100.514C724.188 101.06 720.993 101.372 720.838 101.294C720.76 101.138 720.136 99.0338 719.513 96.618C718.889 94.2021 717.642 90.7732 716.785 89.1367C715.071 85.8637 709.616 79.7851 707.122 78.4603C705.641 77.681 705.641 77.4473 706.888 73.1611C707.979 69.1867 708.057 68.4074 706.966 66.4592C705.719 63.8875 702.68 62.8744 699.719 63.8875C698.16 64.433 697.303 65.8357 695.744 70.0439C693.952 74.8756 693.562 75.499 691.302 75.9666C680.548 78.1486 671.586 91.9422 671.586 106.125C671.586 110.879 673.456 118.672 675.56 122.724C677.82 127.166 682.652 132.232 686.704 134.336C690.055 136.206 690.055 136.206 690.523 141.272C691.146 148.519 693.562 155.611 697.692 162.313L701.277 168.079L699.017 170.495C694.575 175.171 694.03 179.068 697.537 181.483C700.576 183.587 703.459 182.964 706.732 179.379L709.694 176.106L713.045 178.522C721.227 184.367 733.15 188.887 743.515 190.134L747.957 190.601V197.771C747.957 201.667 748.191 205.642 748.425 206.577C748.892 208.291 748.736 208.369 744.606 208.369C740.865 208.369 740.086 208.681 738.683 210.395C736.813 212.733 736.657 213.746 737.904 216.474C738.917 218.734 741.333 219.747 746.866 220.448L750.84 220.916L752.555 226.527C753.568 229.644 755.36 234.398 756.607 237.125C757.854 239.853 758.867 242.191 758.867 242.269C758.867 242.346 757.542 242.814 755.906 243.282C754.269 243.827 752.243 244.84 751.542 245.697C749.516 247.879 750.217 251.854 752.789 253.802C754.893 255.361 755.127 255.361 760.192 254.192C763.153 253.49 765.491 252.945 765.491 253.023C765.569 253.101 767.517 255.672 770.011 258.712C778.194 268.921 790.117 277.727 801.417 282.013L807.729 284.429L805.547 289.806C804.3 292.845 803.287 295.728 803.287 296.196C803.287 297.521 802.742 297.443 797.364 295.65C793.702 294.404 792.377 294.248 790.74 294.871C788.792 295.728 786.922 298.456 786.922 300.638C786.922 302.82 789.883 305.314 794.403 306.872C799.624 308.743 799.391 307.807 797.91 319.809C797.442 323.861 796.819 329.939 796.585 333.29C796.118 339.135 796.118 339.291 794.091 339.291C786.065 339.291 782.012 344.512 786.065 349.5C787.389 351.136 788.169 351.37 792.299 351.136C796.663 350.98 797.053 351.136 797.364 352.695C797.598 353.708 798.3 357.76 799.001 361.735C801.261 374.983 807.339 390.725 814.665 402.18L817.314 406.311H809.054C804.534 406.311 800.248 406.622 799.469 407.09C798.689 407.479 797.598 408.804 797.131 410.129C796.351 411.999 796.351 412.779 797.364 414.727C797.988 415.974 799.157 417.221 799.78 417.532C800.482 417.766 832.745 418 871.476 418C939.041 418 941.924 417.922 943.638 416.519C946.132 414.493 946.132 409.817 943.638 407.791C942.08 406.544 940.443 406.311 933.274 406.311H924.78L927.117 402.882C930.468 398.128 936.001 386.828 938.495 379.814C941.768 370.697 944.262 358.54 945.197 346.928C946.21 335.317 946.132 335.395 951.587 335.395C954.315 335.395 957.588 332.199 957.588 329.55C957.588 328.381 956.731 326.666 955.562 325.497C953.769 323.705 953.146 323.549 949.405 323.939L945.197 324.329L944.73 320.744C944.418 318.718 943.716 314.587 943.093 311.626C941.69 304.69 941.69 305.002 943.794 305.002C949.873 305.002 964.134 299.079 971.537 293.468L975.746 290.273L978.785 292.923C982.214 296.04 983.85 296.274 986.734 294.014C989.617 291.754 989.539 288.013 986.422 284.429L984.006 281.701L986.889 277.96C988.448 275.934 990.786 272.349 992.033 270.167L994.371 266.037L997.098 267.206C1001.31 268.998 1003.96 268.687 1005.83 266.349C1008.87 262.53 1007.7 259.569 1002.16 256.763C1000.37 255.828 998.891 254.815 998.891 254.504C998.969 254.192 999.436 252.01 999.982 249.672L1000.92 245.386L1007.93 244.918C1013.23 244.606 1015.96 243.983 1019.39 242.346C1026.24 239.073 1032.63 232.683 1036.06 225.67C1038.87 220.137 1039.02 219.279 1039.02 212.733C1038.95 206.655 1038.71 205.018 1036.84 201.2C1034.35 196.056 1030.61 192.549 1025.08 189.978L1021.1 188.107V184.133C1021.1 180.938 1020.79 179.925 1019.23 178.678C1015.18 175.327 1010.42 178.132 1009.49 184.367C1008.94 187.874 1008.87 187.952 1004.27 189.588C1001.7 190.523 997.41 193.017 994.76 195.043L989.851 198.784L985.721 194.965C979.408 189.12 970.992 185.458 960.549 183.821L957.588 183.354L958.055 178.912C958.367 176.184 958.055 172.599 957.354 169.638L956.263 164.806L959.224 162.391C961.796 160.364 962.264 159.507 962.264 157.013C962.264 155.143 961.718 153.585 960.861 152.805C959.069 151.169 954.237 151.091 952.912 152.649C951.509 154.364 951.042 154.208 946.132 150.389C940.599 146.259 936.157 144.467 931.092 144.467H927.195V141.428C927.195 135.037 920.493 131.53 916.831 135.972C915.584 137.531 915.35 138.7 915.74 143.22C916.051 148.363 915.973 148.675 913.947 150.467C912.778 151.48 910.674 153.896 909.427 156C901.712 168.157 903.349 185.614 913.324 196.368L916.519 199.875L913.402 203.148C906.154 210.863 898.361 222.63 898.361 226.137C898.361 228.787 899.764 230.969 902.024 231.826C905.453 233.073 907.869 231.514 911.22 225.67C920.26 209.772 933.741 199.173 949.016 196.056C960.238 193.796 971.226 196.913 979.096 204.784C992.267 217.954 993.747 241.022 982.837 262.141C973.797 279.675 958.445 291.364 941.534 293.624L938.339 294.092L936.313 288.793C926.806 264.634 906.544 244.84 885.893 239.619C883.944 239.073 881.996 238.528 881.529 238.372C880.905 238.216 880.983 236.736 881.84 233.151C883.711 225.825 883.633 204.629 881.684 195.9C878.801 182.496 873.658 170.495 866.176 159.507L862.046 153.429L866.644 149.922C874.203 144.155 881.918 134.024 885.971 124.673L887.841 120.231L893.53 120.698C898.829 121.166 899.452 121.088 901.167 119.451C903.738 117.036 903.738 113.139 901.089 111.113C900.076 110.256 897.426 109.398 895.166 109.087C891.192 108.541 891.192 108.541 891.659 106.125C891.893 104.801 892.127 101.683 892.127 99.1117C892.127 95.449 892.361 94.4359 893.53 94.1242C903.894 90.6174 912.389 83.5258 916.675 74.7976C922.909 62.173 921.584 50.4836 913.246 42.9244C910.285 40.2748 903.972 37.7031 900.232 37.7031C898.907 37.7031 898.439 37.1576 898.05 34.5859C897.426 30.5336 895.244 28.3515 891.893 28.3515C887.295 28.3515 885.347 32.4039 886.906 38.4824C887.295 40.1969 886.906 40.7424 883.399 42.7685C881.217 44.0154 877.788 46.9767 875.762 49.2367L872.099 53.367L867.501 51.107C860.721 47.756 856.123 46.8988 847.006 47.2105L838.901 47.4443L837.966 44.1713L836.953 40.8982L840.771 37.7031C845.837 33.417 845.993 29.5205 841.317 27.1047C839.057 25.9357 838.745 26.0137 835.082 27.884L831.186 29.9101L827.679 26.793C822.458 22.273 816.691 19.6234 810.924 19.3117C808.197 19.1558 805.157 19.3117 804.066 19.7014ZM817.081 33.339C820.665 35.7549 824.25 40.4306 826.121 45.3402C828.303 50.7953 827.913 51.8084 822.847 55.0035C820.354 56.64 816.535 59.5234 814.353 61.4717L810.457 64.9785L807.339 61.8613C798.144 52.5877 797.287 35.1314 805.937 31.3908C808.664 30.2219 813.73 31.0791 817.081 33.339ZM904.674 51.1849C912.934 56.718 908.648 72.3818 896.881 79.941C892.906 82.4348 890.568 82.7465 890.568 80.7203C890.568 78.6941 885.503 67.6281 883.243 64.5889C882.152 63.1861 881.217 61.7055 881.217 61.3937C881.217 60.1469 885.425 55.549 888.464 53.4449C894.855 49.0029 900.388 48.3015 904.674 51.1849ZM861.812 61.1599C870.073 65.0564 877.087 74.2521 879.58 84.6947C880.827 89.9939 880.749 101.995 879.346 107.996C876.151 121.633 869.138 132.855 858.383 141.505C856.279 143.142 854.331 144.467 854.019 144.467C853.708 144.467 851.214 142.752 848.564 140.57C837.81 131.998 824.952 126.699 812.795 125.997C805.859 125.53 805.469 125.452 804.69 123.504C804.222 122.413 803.833 117.581 803.755 112.905C803.755 102.852 805.002 97.0855 809.444 87.9678C816.146 74.0183 825.497 65.0564 838.745 60.1469C844.59 57.9648 855.89 58.5103 861.812 61.1599ZM701.979 88.9808C704.94 91.1629 708.291 97.9428 708.758 102.774C709.07 105.658 708.914 107.061 708.369 107.061C706.732 107.061 697.692 116.178 695.354 120.231C694.108 122.413 692.783 124.205 692.471 124.205C690.99 124.205 687.172 119.841 685.613 116.334C682.262 108.385 682.808 99.6572 687.094 92.8773C690.835 86.9547 697.069 85.3961 701.979 88.9808ZM748.347 114.386C751.776 115.477 756.685 117.581 759.257 119.14C764.244 122.179 772.505 129.816 774.687 133.479C775.934 135.661 775.934 135.661 772.895 138.154C770.245 140.259 769.777 141.116 769.777 143.61C769.777 149.844 774.999 151.169 781.077 146.571C789.182 140.337 797.676 137.453 807.963 137.453C820.042 137.453 830.095 141.194 841.239 149.61C854.721 159.897 865.631 177.821 869.995 197.069C872.021 205.875 872.021 224.423 869.995 232.294L868.592 237.982H865.709C860.955 237.982 851.448 240.788 844.824 244.139C834.147 249.438 824.484 258.088 816.223 269.7L813.34 273.752L809.288 272.505C800.092 269.778 790.896 263.777 782.636 255.049C776.012 248.035 772.271 242.502 767.751 232.917C758.244 212.967 757.075 188.185 764.634 169.326C767.206 162.78 767.206 160.598 764.634 158.572C759.179 154.286 755.906 157.637 751.464 171.898C749.048 179.769 749.516 179.535 739.541 177.509C717.798 173.145 700.264 153.585 702.29 135.972C704.472 117.036 725.513 107.138 748.347 114.386ZM936.937 158.182C940.599 160.598 942.314 162.624 944.262 166.677C946.366 171.197 946.989 176.418 945.898 181.094C945.041 184.756 944.807 184.99 941.768 185.847C939.976 186.315 935.768 187.952 932.495 189.432C926.728 192.082 926.338 192.16 924.546 190.913C914.259 184.211 913.48 164.651 923.143 158.104C927.117 155.377 932.884 155.377 936.937 158.182ZM1022.19 201.589C1025.23 203.382 1027.65 208.213 1027.72 212.344C1027.8 222.942 1017.36 233.307 1006.68 233.307H1002.32L1001.38 226.683C1000.92 223.098 999.67 217.643 998.657 214.681L996.709 209.226L1000.53 205.642C1007.54 199.095 1015.57 197.537 1022.19 201.589ZM886.828 252.166C894.699 255.127 900.31 258.79 906.934 265.258C939.508 297.287 943.171 361.657 914.571 400.154L910.051 406.311H871.164H832.277L829.16 402.18C815.522 384.49 808.508 362.514 808.508 337.343C808.508 317.938 811.781 303.365 819.652 287.468C829.16 268.219 843.187 255.283 859.396 250.841C866.176 248.971 880.126 249.672 886.828 252.166Z" fill="#DEDEDE"/>
<path d="M832.355 79.7852C829.861 80.7983 828.926 83.2141 828.458 89.916C828.069 95.6828 828.069 95.9166 830.173 97.5531C832.9 99.7352 834.615 99.7352 837.187 97.4752C838.823 96.1504 839.369 94.6697 839.992 90.3057C840.849 84.0713 840.07 81.2658 837.109 79.8631C834.849 78.85 834.693 78.85 832.355 79.7852Z" fill="#DEDEDE"/>
<path d="M855.968 100.592C849.811 106.047 848.876 108.463 851.681 112.048C852.85 113.529 853.941 114.074 856.045 114.074C858.461 114.074 859.552 113.373 863.449 109.554C868.592 104.333 869.216 101.995 866.02 98.8779C863.215 95.9945 860.799 96.3842 855.968 100.592Z" fill="#DEDEDE"/>
<path d="M741.021 129.582C738.839 131.764 738.995 134.726 741.489 138.7C744.684 143.765 747.879 144.856 751.386 142.051C754.269 139.791 754.114 136.206 750.84 131.842C748.736 129.115 747.723 128.413 745.463 128.257C743.359 128.102 742.112 128.491 741.021 129.582Z" fill="#DEDEDE"/>
<path d="M716.785 140.57C714.759 142.596 714.759 146.883 716.785 148.753C718.811 150.623 725.903 153.818 728.007 153.818C732.215 153.818 735.021 148.987 732.761 145.558C731.358 143.298 723.098 139.012 720.292 139.012C719.201 139.012 717.642 139.713 716.785 140.57Z" fill="#DEDEDE"/>
<path d="M801.183 148.831C799.391 150.623 799.235 151.247 799.702 154.442C800.326 159.429 802.352 161.923 805.859 162.235C809.288 162.546 811.859 160.286 811.859 157.091C811.859 148.519 806.015 143.999 801.183 148.831Z" fill="#DEDEDE"/>
<path d="M830.796 174.236C828.147 177.197 825.887 181.328 825.887 183.51C825.887 186.159 828.926 188.887 831.809 188.887C834.459 188.887 836.563 187.016 839.057 182.263C841.161 178.288 841.083 176.808 838.745 174.47C836.329 171.976 832.9 171.898 830.796 174.236Z" fill="#DEDEDE"/>
<path d="M786.298 191.225C784.116 192.16 782.714 195.199 783.337 197.771C783.649 198.94 785.441 200.966 787.545 202.524C792.143 205.875 795.494 206.109 797.754 203.226C800.637 199.563 799.858 196.835 795.104 193.562C791.208 190.913 788.714 190.211 786.298 191.225Z" fill="#DEDEDE"/>
<path d="M839.057 211.408C834.849 215.539 834.459 217.253 836.875 220.37C839.368 223.565 843.031 223.176 847.317 219.201C850.123 216.63 850.824 215.461 850.824 213.357C850.824 210.006 848.486 207.59 845.291 207.59C843.343 207.59 841.94 208.447 839.057 211.408Z" fill="#DEDEDE"/>
<path d="M798.066 229.41C794.481 230.891 793.702 235.177 796.507 238.294C797.754 239.775 799.391 240.476 802.897 241.022C809.833 242.035 812.639 240.476 812.639 235.644C812.639 231.904 811.002 230.501 805.313 229.488C800.014 228.475 800.326 228.475 798.066 229.41Z" fill="#DEDEDE"/>
<path d="M867.423 273.051C864.462 274.22 863.059 277.259 863.683 281C864.462 285.52 865.319 287 867.735 287.935C872.333 289.65 876.463 285.286 875.372 279.909C874.437 275.233 874.125 274.609 871.865 273.44C870.618 272.817 869.527 272.272 869.372 272.349C869.216 272.349 868.359 272.661 867.423 273.051Z" fill="#DEDEDE"/>
<path d="M833.68 301.885C831.03 304.534 831.809 308.587 835.862 312.951C838.589 315.912 842.33 315.912 844.512 313.107C846.85 310.145 846.538 308.119 843.421 303.911C841.005 300.872 840.226 300.326 837.966 300.326C836.251 300.326 834.615 300.95 833.68 301.885Z" fill="#DEDEDE"/>
<path d="M903.661 312.951C900.232 315.6 896.803 320.822 896.803 323.315C896.803 325.965 899.608 329.16 901.946 329.16C905.687 329.16 912.389 321.835 912.389 317.704C912.389 313.107 907.089 310.301 903.661 312.951Z" fill="#DEDEDE"/>
<path d="M868.358 327.991C866.254 330.017 866.021 332.433 867.112 338.434C867.969 342.564 869.761 344.123 873.346 343.811C877.632 343.421 879.113 340.694 878.411 334.615C877.554 326.744 872.723 323.549 868.358 327.991Z" fill="#DEDEDE"/>
<path d="M828.692 346.383C826.666 347.941 826.042 350.825 827.134 353.708C827.757 355.189 836.875 359.553 839.446 359.553C841.784 359.553 844.356 357.604 844.901 355.267C845.759 351.76 843.655 349.188 838.044 346.85C831.809 344.356 831.342 344.279 828.692 346.383Z" fill="#DEDEDE"/>
<path d="M894.854 365.865C893.997 366.333 891.426 368.515 889.244 370.697C885.893 373.892 885.113 375.217 885.113 377.243C885.113 380.36 887.685 382.932 890.802 382.932C893.997 382.932 903.037 374.281 903.037 371.242C903.037 367.034 898.283 363.995 894.854 365.865Z" fill="#DEDEDE"/>
<path d="M960.004 219.201C956.029 221.773 955.25 222.864 955.25 225.67C955.25 228.553 957.744 230.969 960.783 230.969C963.511 230.969 969.745 227.618 970.836 225.514C973.018 221.461 970.446 216.941 966.004 217.019C964.602 217.019 961.874 218.032 960.004 219.201Z" fill="#DEDEDE"/>
<path d="M929.377 219.669C928.208 220.37 927.117 221.773 926.806 223.02C926.182 226.059 929.144 235.411 931.17 236.424C933.741 237.827 937.404 237.047 939.119 234.709C940.677 232.605 940.677 232.527 939.275 227.306C937.092 219.435 934.131 217.097 929.377 219.669Z" fill="#DEDEDE"/>
<path d="M951.12 256.763C945.977 259.413 944.496 261.829 945.899 265.336C946.444 266.505 947.847 267.907 949.094 268.375C951.12 269.232 952.055 269.076 956.419 267.206C962.108 264.868 962.809 264.167 963.511 260.738C963.9 258.79 963.589 257.932 962.03 256.374C959.38 253.724 956.809 253.802 951.12 256.763Z" fill="#DEDEDE"/>
<path d="M89.8047 0.449977C80.1625 3.79998 77.1848 17.05 83.5184 28.5C84.2273 29.75 85.7871 31.8 87.016 33.05L89.2848 35.4L87.2051 39.7C86.0234 42.1 85.0781 44.4 85.0781 44.8C85.0781 45.25 84.9363 45.5 84.7473 45.4C84.5109 45.3 83.5656 44.8 82.573 44.25C80.4461 43.1 78.6027 43.6 77.5629 45.55C76.4758 47.55 77.1848 49.2 80.068 51.35L82.6676 53.25L82.573 58.5C82.5258 61.4 82.6676 65.05 82.8566 66.6C83.2348 69.35 83.1875 69.5 82.1477 69.95C79.0754 71.15 79.0754 71.15 77.5156 68.75C73.1672 62.05 65.2738 56.15 57.5695 53.8L54.9227 52.95L55.6316 50.45C56.4824 47.3 55.9152 45.4 53.7883 44.45C51.4723 43.45 50.1016 44.55 48.8727 48.5L47.8801 51.75L43.6734 52.3C41.3574 52.65 39.4195 52.85 39.325 52.8C39.2777 52.7 38.8996 51.35 38.5215 49.8C38.1434 48.25 37.3871 46.05 36.8672 45C35.8273 42.9 32.5188 39 31.0063 38.15C30.1082 37.65 30.1082 37.5 30.8645 34.75C31.5262 32.2 31.5734 31.7 30.9117 30.45C30.1555 28.8 28.3121 28.15 26.516 28.8C25.5707 29.15 25.0508 30.05 24.1055 32.75C23.0184 35.85 22.782 36.25 21.4113 36.55C14.8887 37.95 9.45312 46.8 9.45312 55.9C9.45312 58.95 10.5875 63.95 11.8637 66.55C13.2344 69.4 16.1648 72.65 18.6227 74C20.6551 75.2 20.6551 75.2 20.9387 78.45C21.3168 83.1 22.782 87.65 25.2871 91.95L27.4613 95.65L26.0906 97.2C23.3965 100.2 23.0656 102.7 25.1926 104.25C27.0359 105.6 28.7848 105.2 30.7699 102.9L32.566 100.8L34.5984 102.35C39.5613 106.1 46.793 109 53.0793 109.8L55.7734 110.1V114.7C55.7734 117.2 55.9152 119.75 56.057 120.35C56.3406 121.45 56.2461 121.5 53.741 121.5C51.4723 121.5 50.9996 121.7 50.1488 122.8C49.0145 124.3 48.9199 124.95 49.6762 126.7C50.2906 128.15 51.7559 128.8 55.1117 129.25L57.5223 129.55L58.5621 133.15C59.1766 135.15 60.2637 138.2 61.0199 139.95C61.7762 141.7 62.3906 143.2 62.3906 143.25C62.3906 143.3 61.5871 143.6 60.5945 143.9C59.602 144.25 58.373 144.9 57.9477 145.45C56.7188 146.85 57.1441 149.4 58.7039 150.65C59.9801 151.65 60.1219 151.65 63.1941 150.9C64.9902 150.45 66.4082 150.1 66.4082 150.15C66.4555 150.2 67.6371 151.85 69.1496 153.8C74.1125 160.35 81.3441 166 88.1977 168.75L92.0262 170.3L90.7027 173.75C89.9465 175.7 89.332 177.55 89.332 177.85C89.332 178.7 89.0012 178.65 85.7398 177.5C83.5184 176.7 82.7148 176.6 81.7223 177C80.5406 177.55 79.4063 179.3 79.4063 180.7C79.4063 182.1 81.2023 183.7 83.9438 184.7C87.1105 185.9 86.9688 185.3 86.0707 193C85.7871 195.6 85.409 199.5 85.2672 201.65C84.9836 205.4 84.9836 205.5 83.7547 205.5C78.8863 205.5 76.4285 208.85 78.8863 212.05C79.6898 213.1 80.1625 213.25 82.6676 213.1C85.3145 213 85.5508 213.1 85.7398 214.1C85.8816 214.75 86.307 217.35 86.7324 219.9C88.1031 228.4 91.7898 238.5 96.2328 245.85L97.8398 248.5H92.8297C90.0883 248.5 87.4887 248.7 87.016 249C86.5434 249.25 85.8816 250.1 85.598 250.95C85.1254 252.15 85.1254 252.65 85.7398 253.9C86.118 254.7 86.827 255.5 87.2051 255.7C87.6305 255.85 107.198 256 130.689 256C171.669 256 173.418 255.95 174.457 255.05C175.97 253.75 175.97 250.75 174.457 249.45C173.512 248.65 172.52 248.5 168.171 248.5H163.019L164.437 246.3C166.47 243.25 169.825 236 171.338 231.5C173.323 225.65 174.836 217.85 175.403 210.4C176.017 202.95 175.97 203 179.279 203C180.933 203 182.918 200.95 182.918 199.25C182.918 198.5 182.398 197.4 181.689 196.65C180.602 195.5 180.224 195.4 177.955 195.65L175.403 195.9L175.119 193.6C174.93 192.3 174.505 189.65 174.127 187.75C173.276 183.3 173.276 183.5 174.552 183.5C178.239 183.5 186.888 179.7 191.379 176.1L193.931 174.05L195.774 175.75C197.854 177.75 198.846 177.9 200.595 176.45C202.344 175 202.297 172.6 200.406 170.3L198.941 168.55L200.69 166.15C201.635 164.85 203.053 162.55 203.809 161.15L205.227 158.5L206.882 159.25C209.434 160.4 211.041 160.2 212.175 158.7C214.019 156.25 213.31 154.35 209.954 152.55C208.867 151.95 207.969 151.3 207.969 151.1C208.016 150.9 208.3 149.5 208.63 148L209.198 145.25L213.452 144.95C216.666 144.75 218.32 144.35 220.4 143.3C224.559 141.2 228.435 137.1 230.514 132.6C232.216 129.05 232.311 128.5 232.311 124.3C232.263 120.4 232.121 119.35 230.987 116.9C229.475 113.6 227.206 111.35 223.85 109.7L221.439 108.5V105.95C221.439 103.9 221.25 103.25 220.305 102.45C217.847 100.3 214.964 102.1 214.397 106.1C214.066 108.35 214.019 108.4 211.23 109.45C209.67 110.05 207.071 111.65 205.464 112.95L202.486 115.35L199.981 112.9C196.152 109.15 191.048 106.8 184.714 105.75L182.918 105.45L183.202 102.6C183.391 100.85 183.202 98.55 182.776 96.65L182.114 93.55L183.911 92C185.47 90.7 185.754 90.15 185.754 88.55C185.754 87.35 185.423 86.35 184.903 85.85C183.816 84.8 180.886 84.75 180.082 85.75C179.231 86.85 178.948 86.75 175.97 84.3C172.614 81.65 169.92 80.5 166.848 80.5H164.484V78.55C164.484 74.45 160.42 72.2 158.198 75.05C157.442 76.05 157.3 76.8 157.536 79.7C157.725 83 157.678 83.2 156.449 84.35C155.74 85 154.464 86.55 153.708 87.9C149.029 95.7 150.021 106.9 156.071 113.8L158.009 116.05L156.118 118.15C151.723 123.1 146.996 130.65 146.996 132.9C146.996 134.6 147.847 136 149.218 136.55C151.297 137.35 152.763 136.35 154.795 132.6C160.278 122.4 168.455 115.6 177.719 113.6C184.525 112.15 191.189 114.15 195.963 119.2C203.951 127.65 204.849 142.45 198.232 156C192.749 167.25 183.438 174.75 173.181 176.2L171.243 176.5L170.014 173.1C164.248 157.6 151.959 144.9 139.434 141.55C138.252 141.2 137.07 140.85 136.787 140.75C136.409 140.65 136.456 139.7 136.976 137.4C138.11 132.7 138.063 119.1 136.881 113.5C135.132 104.9 132.013 97.2 127.475 90.15L124.97 86.25L127.759 84C132.344 80.3 137.023 73.8 139.481 67.8L140.615 64.95L144.066 65.25C147.28 65.55 147.658 65.5 148.698 64.45C150.257 62.9 150.257 60.4 148.65 59.1C148.036 58.55 146.429 58 145.058 57.8C142.648 57.45 142.648 57.45 142.931 55.9C143.073 55.05 143.215 53.05 143.215 51.4C143.215 49.05 143.357 48.4 144.066 48.2C150.352 45.95 155.504 41.4 158.104 35.8C161.885 27.7 161.081 20.2 156.024 15.35C154.228 13.65 150.399 12 148.13 12C147.327 12 147.043 11.65 146.807 9.99998C146.429 7.39998 145.105 5.99998 143.073 5.99998C140.284 5.99998 139.103 8.59998 140.048 12.5C140.284 13.6 140.048 13.95 137.921 15.25C136.598 16.05 134.518 17.95 133.289 19.4L131.068 22.05L128.279 20.6C124.167 18.45 121.378 17.9 115.848 18.1L110.932 18.25L110.365 16.15L109.751 14.05L112.067 12C115.139 9.24998 115.234 6.74998 112.398 5.19998C111.027 4.44998 110.838 4.49998 108.616 5.69998L106.253 6.99998L104.126 4.99998C100.959 2.09998 97.4617 0.399977 93.9641 0.199977C92.3098 0.0999771 90.4664 0.199977 89.8047 0.449977ZM97.698 9.19998C99.8723 10.75 102.046 13.75 103.181 16.9C104.504 20.4 104.268 21.05 101.196 23.1C99.6832 24.15 97.3672 26 96.0438 27.25L93.6805 29.5L91.7898 27.5C86.2125 21.55 85.6926 10.35 90.9391 7.94998C92.5934 7.19998 95.6656 7.74998 97.698 9.19998ZM150.825 20.65C155.835 24.2 153.235 34.25 146.098 39.1C143.688 40.7 142.27 40.9 142.27 39.6C142.27 38.3 139.197 31.2 137.827 29.25C137.165 28.35 136.598 27.4 136.598 27.2C136.598 26.4 139.15 23.45 140.993 22.1C144.869 19.25 148.225 18.8 150.825 20.65ZM124.829 27.05C129.839 29.55 134.093 35.45 135.605 42.15C136.361 45.55 136.314 53.25 135.463 57.1C133.525 65.85 129.271 73.05 122.749 78.6C121.473 79.65 120.291 80.5 120.102 80.5C119.913 80.5 118.4 79.4 116.793 78C110.271 72.5 102.472 69.1 95.0984 68.65C90.8918 68.35 90.6555 68.3 90.1828 67.05C89.8992 66.35 89.6629 63.25 89.6156 60.25C89.6156 53.8 90.3719 50.1 93.066 44.25C97.1309 35.3 102.803 29.55 110.838 26.4C114.383 25 121.236 25.35 124.829 27.05ZM27.8867 44.9C29.6828 46.3 31.7152 50.65 31.9988 53.75C32.1879 55.6 32.0934 56.5 31.7625 56.5C30.7699 56.5 25.2871 62.35 23.8691 64.95C23.1129 66.35 22.3094 67.5 22.1203 67.5C21.2223 67.5 18.9063 64.7 17.9609 62.45C15.9285 57.35 16.2594 51.75 18.859 47.4C21.1277 43.6 24.909 42.6 27.8867 44.9ZM56.0098 61.2C58.0895 61.9 61.0672 63.25 62.627 64.25C65.652 66.2 70.6621 71.1 71.9855 73.45C72.7418 74.85 72.7418 74.85 70.8984 76.45C69.2914 77.8 69.0078 78.35 69.0078 79.95C69.0078 83.95 72.1746 84.8 75.8613 81.85C80.777 77.85 85.9289 76 92.168 76C99.4941 76 105.591 78.4 112.35 83.8C120.527 90.4 127.145 101.9 129.791 114.25C131.02 119.9 131.02 131.8 129.791 136.85L128.941 140.5H127.192C124.309 140.5 118.542 142.3 114.525 144.45C108.049 147.85 102.188 153.4 97.1781 160.85L95.4293 163.45L92.9715 162.65C87.3941 160.9 81.8168 157.05 76.8066 151.45C72.7891 146.95 70.5203 143.4 67.7789 137.25C62.0125 124.45 61.3035 108.55 65.8883 96.45C67.448 92.25 67.448 90.85 65.8883 89.55C62.5797 86.8 60.5945 88.95 57.9004 98.1C56.4352 103.15 56.7188 103 50.6688 101.7C37.4816 98.9 26.8469 86.35 28.0758 75.05C29.3992 62.9 42.1609 56.55 56.0098 61.2ZM170.393 89.3C172.614 90.85 173.654 92.15 174.836 94.75C176.112 97.65 176.49 101 175.828 104C175.308 106.35 175.166 106.5 173.323 107.05C172.236 107.35 169.684 108.4 167.698 109.35C164.201 111.05 163.964 111.1 162.877 110.3C156.638 106 156.166 93.45 162.027 89.25C164.437 87.5 167.935 87.5 170.393 89.3ZM222.101 117.15C223.945 118.3 225.41 121.4 225.457 124.05C225.504 130.85 219.171 137.5 212.695 137.5H210.048L209.481 133.25C209.198 130.95 208.441 127.45 207.827 125.55L206.645 122.05L208.961 119.75C213.215 115.55 218.084 114.55 222.101 117.15ZM140.001 149.6C144.775 151.5 148.178 153.85 152.195 158C171.952 178.55 174.174 219.85 156.827 244.55L154.086 248.5H130.5H106.915L105.024 245.85C96.7527 234.5 92.4988 220.4 92.4988 204.25C92.4988 191.8 94.484 182.45 99.2578 172.25C105.024 159.9 113.532 151.6 123.363 148.75C127.475 147.55 135.936 148 140.001 149.6Z" fill="#DEDEDE"/>
<path d="M106.962 39C105.45 39.65 104.882 41.2 104.599 45.5C104.363 49.2 104.363 49.35 105.639 50.4C107.293 51.8 108.333 51.8 109.893 50.35C110.885 49.5 111.216 48.55 111.594 45.75C112.114 41.75 111.641 39.95 109.845 39.05C108.475 38.4 108.38 38.4 106.962 39Z" fill="#DEDEDE"/>
<path d="M121.284 52.35C117.55 55.85 116.982 57.4 118.684 59.7C119.393 60.65 120.055 61 121.331 61C122.796 61 123.458 60.55 125.821 58.1C128.941 54.75 129.319 53.25 127.381 51.25C125.679 49.4 124.214 49.65 121.284 52.35Z" fill="#DEDEDE"/>
<path d="M51.5668 70.95C50.2433 72.35 50.3379 74.25 51.8504 76.8C53.7883 80.05 55.7262 80.75 57.8531 78.95C59.6019 77.5 59.5074 75.2 57.5223 72.4C56.2461 70.65 55.6316 70.2 54.2609 70.1C52.9848 70 52.2285 70.25 51.5668 70.95Z" fill="#DEDEDE"/>
<path d="M36.8672 78C35.6383 79.3 35.6383 82.05 36.8672 83.25C38.0961 84.45 42.3973 86.5 43.6735 86.5C46.2258 86.5 47.9274 83.4 46.5567 81.2C45.7059 79.75 40.6958 77 38.9942 77C38.3325 77 37.3872 77.45 36.8672 78Z" fill="#DEDEDE"/>
<path d="M88.0558 83.3C86.9687 84.45 86.8742 84.85 87.1578 86.9C87.5359 90.1 88.7648 91.7 90.8918 91.9C92.9715 92.1 94.5312 90.65 94.5312 88.6C94.5312 83.1 90.9863 80.2 88.0558 83.3Z" fill="#DEDEDE"/>
<path d="M106.017 99.6C104.41 101.5 103.039 104.15 103.039 105.55C103.039 107.25 104.882 109 106.631 109C108.238 109 109.514 107.8 111.027 104.75C112.303 102.2 112.256 101.25 110.838 99.75C109.373 98.15 107.293 98.1 106.017 99.6Z" fill="#DEDEDE"/>
<path d="M79.0282 110.5C77.7047 111.1 76.854 113.05 77.2321 114.7C77.4211 115.45 78.5082 116.75 79.7844 117.75C82.5731 119.9 84.6055 120.05 85.9762 118.2C87.725 115.85 87.2524 114.1 84.3692 112C82.0059 110.3 80.4934 109.85 79.0282 110.5Z" fill="#DEDEDE"/>
<path d="M111.027 123.45C108.475 126.1 108.238 127.2 109.703 129.2C111.216 131.25 113.437 131 116.037 128.45C117.739 126.8 118.164 126.05 118.164 124.7C118.164 122.55 116.746 121 114.808 121C113.627 121 112.776 121.55 111.027 123.45Z" fill="#DEDEDE"/>
<path d="M86.1653 135C83.9911 135.95 83.5184 138.7 85.22 140.7C85.9762 141.65 86.9688 142.1 89.0957 142.45C93.3024 143.1 95.0039 142.1 95.0039 139C95.0039 136.6 94.0114 135.7 90.561 135.05C87.3469 134.4 87.536 134.4 86.1653 135Z" fill="#DEDEDE"/>
<path d="M128.232 163C126.436 163.75 125.585 165.7 125.963 168.1C126.436 171 126.956 171.95 128.421 172.55C131.209 173.65 133.715 170.85 133.053 167.4C132.486 164.4 132.297 164 130.926 163.25C130.17 162.85 129.508 162.5 129.413 162.55C129.319 162.55 128.799 162.75 128.232 163Z" fill="#DEDEDE"/>
<path d="M107.766 181.5C106.159 183.2 106.631 185.8 109.089 188.6C110.743 190.5 113.012 190.5 114.336 188.7C115.753 186.8 115.564 185.5 113.674 182.8C112.209 180.85 111.736 180.5 110.365 180.5C109.325 180.5 108.333 180.9 107.766 181.5Z" fill="#DEDEDE"/>
<path d="M150.21 188.6C148.13 190.3 146.051 193.65 146.051 195.25C146.051 196.95 147.752 199 149.17 199C151.439 199 155.504 194.3 155.504 191.65C155.504 188.7 152.29 186.9 150.21 188.6Z" fill="#DEDEDE"/>
<path d="M128.799 198.25C127.523 199.55 127.381 201.1 128.043 204.95C128.562 207.6 129.65 208.6 131.824 208.4C134.423 208.15 135.321 206.4 134.896 202.5C134.376 197.45 131.446 195.4 128.799 198.25Z" fill="#DEDEDE"/>
<path d="M104.741 210.05C103.512 211.05 103.134 212.9 103.795 214.75C104.173 215.7 109.704 218.5 111.263 218.5C112.681 218.5 114.241 217.25 114.572 215.75C115.092 213.5 113.816 211.85 110.413 210.35C106.631 208.75 106.348 208.7 104.741 210.05Z" fill="#DEDEDE"/>
<path d="M144.869 222.55C144.349 222.85 142.789 224.25 141.466 225.65C139.434 227.7 138.961 228.55 138.961 229.85C138.961 231.85 140.521 233.5 142.411 233.5C144.349 233.5 149.832 227.95 149.832 226C149.832 223.3 146.949 221.35 144.869 222.55Z" fill="#DEDEDE"/>
<path d="M184.383 128.45C181.973 130.1 181.5 130.8 181.5 132.6C181.5 134.45 183.012 136 184.856 136C186.51 136 190.291 133.85 190.953 132.5C192.277 129.9 190.717 127 188.023 127.05C187.172 127.05 185.518 127.7 184.383 128.45Z" fill="#DEDEDE"/>
<path d="M165.808 128.75C165.099 129.2 164.437 130.1 164.248 130.9C163.87 132.85 165.666 138.85 166.895 139.5C168.455 140.4 170.676 139.9 171.716 138.4C172.661 137.05 172.661 137 171.811 133.65C170.487 128.6 168.691 127.1 165.808 128.75Z" fill="#DEDEDE"/>
<path d="M178.995 152.55C175.875 154.25 174.977 155.8 175.828 158.05C176.159 158.8 177.01 159.7 177.766 160C178.995 160.55 179.562 160.45 182.209 159.25C185.659 157.75 186.085 157.3 186.51 155.1C186.746 153.85 186.557 153.3 185.612 152.3C184.005 150.6 182.445 150.65 178.995 152.55Z" fill="#DEDEDE"/>
</g>
<defs>
<clipPath id="clip0_18_179">
<rect width="1055" height="418" fill="white"/>
</clipPath>
<clipPath id="clip1_18_179">
<rect width="278" height="278" fill="white" transform="translate(315 76)"/>
</clipPath>
</defs>
</svg>
