<svg width="65" height="64" viewBox="0 0 65 64" fill="none" xmlns="http://www.w3.org/2000/svg">
<g clip-path="url(#clip0_3_8)">
<path d="M24.75 0.512487C18.5875 0.824987 12.6125 3.53749 8.075 8.07499C4.3875 11.7625 1.875 16.5 0.950001 21.5125C-1.15 32.8875 4.4125 44.1 14.75 49.3625C20.425 52.25 27.175 52.9125 33.3625 51.175C35.575 50.55 38.725 49.1375 40.325 48.025L41.0625 47.525L48.625 55.05C55.45 61.8625 56.2625 62.625 57 62.9875C60.8125 64.825 65.1375 61.625 64.3875 57.525C64.0875 55.9 64.1 55.9125 55.8875 47.7L48.2875 40.1L49.3125 38.0875C51.0375 34.6875 51.825 31.85 52.1375 28.0625C52.6875 21.1875 50.2125 14.075 45.45 8.89999C43.0375 6.26249 40.4 4.33749 37.1875 2.84999C35.2625 1.96249 34.55 1.69999 32.7625 1.24999C30.0875 0.574987 27.75 0.362487 24.75 0.512487ZM29.1875 9.06249C36.125 10.2 41.75 15.4625 43.35 22.3125C44.7 28.075 43.0375 34.1 38.9375 38.3625C35.5625 41.8625 31.1625 43.75 26.35 43.75C21.7125 43.75 17.3375 41.925 14.0125 38.6125C11.5625 36.15 9.975 33.2 9.225 29.7125C8.8375 27.8875 8.8375 24.725 9.2375 22.8875C10.2625 18.0875 12.9375 14.1875 17 11.5625C19.075 10.2125 21.3 9.41249 24.125 8.96249C24.95 8.82499 28.1625 8.88749 29.1875 9.06249Z" fill="#FEFEFE"/>
</g>
<defs>
<clipPath id="clip0_3_8">
<rect width="64" height="64" fill="white" transform="translate(0.5)"/>
</clipPath>
</defs>
</svg>
